<svg xmlns="http://www.w3.org/2000/svg" xml:space="preserve" width="2000" height="466" data-id="lg_IWUB9x7tcmKmeRQhFj" data-version="1" viewBox="0 0 2000 466"><g data-padding="20"><g transform="translate(10 8.351)scale(.96416)"><rect width="587.265" height="134.47" x="492.476" y="-67.61" fill="none" rx="0" ry="0" transform="matrix(.95 0 0 .95 280 370.58)"/><path d="M772.352 324.964h21.13q15.65 0 22.87 6.11 7.22 6.12 7.22 17.51 0 5.15-1.69 9.76-1.69 4.62-5.45 8.14-3.76 3.51-9.87 5.53-6.12 2.02-14.97 2.02h-9.84v31.8h-9.4Zm20.24 8.02h-10.84v32.97h8.79q7.75 0 12.92-1.66t7.77-5.39q2.6-3.74 2.6-9.93 0-8.08-5.14-12.03-5.15-3.96-16.1-3.96m93.2 72.85h-45.3v-80.87h9.4v72.46h35.9Zm74.29 0h-9.74l-9.95-25.66h-32.42l-9.9 25.66h-9.51l31.64-81.2h8.46Zm-48.95-34.02h26.44l-9.46-25.5q-.33-.99-1.08-3.26t-1.52-4.7q-.78-2.44-1.27-3.93-.56 2.27-1.19 4.51-.64 2.24-1.25 4.15t-1.05 3.23Zm94.69-39.71q-6.69 0-12.03 2.29-5.33 2.3-9.07 6.64-3.73 4.34-5.72 10.48t-1.99 13.83q0 10.18 3.18 17.67 3.18 7.5 9.51 11.59 6.33 4.1 15.85 4.1 5.42 0 10.2-.92 4.79-.91 9.32-2.29v8.18q-4.42 1.66-9.29 2.47-4.87.8-11.56.8-12.34 0-20.6-5.12-8.27-5.12-12.39-14.46-4.13-9.35-4.13-22.07 0-9.19 2.58-16.79 2.57-7.61 7.52-13.14t12.17-8.54q7.22-3.02 16.56-3.02 6.14 0 11.84 1.22 5.7 1.21 10.29 3.48l-3.76 7.97q-3.87-1.77-8.49-3.07t-9.99-1.3m81.81 65.43v8.3h-45.02v-80.87h45.02v8.3h-35.62v26.16h33.58v8.19h-33.58v29.92Zm17.92-72.57h21.13q15.66 0 22.88 6.11 7.21 6.12 7.21 17.51 0 5.15-1.68 9.76-1.69 4.62-5.45 8.14-3.76 3.51-9.87 5.53-6.12 2.02-14.97 2.02h-9.84v31.8h-9.41Zm20.25 8.02h-10.84v32.97h8.79q7.75 0 12.92-1.66t7.77-5.39q2.6-3.74 2.6-9.93 0-8.08-5.14-12.03-5.15-3.96-16.1-3.96m108.36 72.85h-9.74l-9.95-25.66h-32.42l-9.9 25.66h-9.51l31.64-81.2h8.46Zm-48.95-34.02h26.44l-9.46-25.5q-.33-.99-1.08-3.26t-1.52-4.7q-.78-2.44-1.27-3.93-.56 2.27-1.19 4.51-.64 2.24-1.25 4.15t-1.05 3.23Zm105.42 34.02h-45.3v-80.87h9.41v72.46h35.89Z"/><rect width="411.815" height="37.29" x="580.2" y="-19.02" fill="none" rx="0" ry="0" transform="matrix(.95 0 0 .95 280 448.52)"/><path d="M846.332 458.054h-6.4q-.44 0-.44-.31 0-.35.62-.44l.63-.1q.69-.09.96-.33.27-.23.39-.89l4.28-18.48q.15-.66 0-.88-.16-.22-.79-.34l-.63-.13q-.41-.09-.41-.34 0-.38.57-.38h6.31q2.7 0 4.29 2 1.59 1.99 1.59 5.92 0 2.89-.91 5.54-.91 2.66-2.45 4.71-1.54 2.06-3.51 3.26-1.96 1.19-4.1 1.19m.16-.82q1.79 0 3.36-1.32t2.77-3.59q1.19-2.28 1.87-5.14.67-2.86.67-5.91 0-2.51-1.04-3.77-1.03-1.25-2.89-1.25-2.35 0-2.89 2.29l-3.77 16.4q-.28 1.26.24 1.77.52.52 1.68.52m17.37-18.19q-.59 0-.99-.42-.39-.42-.39-1.02 0-.85.52-1.35t1.18-.5q.63 0 1.05.39t.42 1.02q0 .88-.53 1.38t-1.26.5m-2.57 19.32q-1.04 0-1.48-.77t-.03-2.52l2.32-9.96q.16-.69.05-1.09-.11-.39-.58-.39-.57 0-1.24.83-.68.84-1.52 3.16-.13.41-.44.41-.48 0-.26-.57.7-2.16 1.47-3.39.76-1.23 1.55-1.73t1.45-.5q1.09 0 1.53.77t.04 2.53l-2.33 9.96q-.16.69-.05 1.08t.59.39q.56 0 1.24-.83.67-.83 1.52-3.16.13-.41.44-.41.47 0 .25.57-.66 2.14-1.46 3.38t-1.59 1.74q-.78.5-1.47.5m8.86-.02q-1.04 0-2.19-.31-1.14-.32-1.74-.79-.22-.19-.19-.56l.69-4.12q.06-.41.38-.41.34 0 .34.44l.07 1.51q.06 1.79.86 2.62.8.84 1.96.84 1.01 0 1.73-.65.72-.64.72-1.9 0-.72-.22-1.33-.21-.62-.69-1.32-.47-.71-1.28-1.71-1.07-1.39-1.59-2.38t-.52-2.05q0-1.98 1.24-3.18 1.24-1.19 3.16-1.19.85 0 1.65.25t1.33.75q.29.22.19.57l-.88 4.21q-.09.41-.37.41-.29 0-.35-.44l-.09-1.51q-.13-1.88-.49-2.7t-1.49-.82q-1.01 0-1.64.69t-.63 1.67q0 1.03.57 1.9.57.86 1.54 2.18 1.29 1.7 1.74 2.7.46 1.01.46 2.05 0 1.32-.58 2.35-.58 1.04-1.56 1.64-.97.59-2.13.59m10.3 0q-1.73 0-2.86-1.43t-1.13-3.66q0-2.1.68-4.13.67-2.02 1.82-3.67 1.14-1.65 2.54-2.63 1.4-.97 2.81-.97 1.51 0 2.55.82.16.12.19.2t-.03.33l-.85 4.12q-.1.44-.41.44-.35 0-.41-.48l-.16-2.23q-.09-1.44-.42-1.88t-.96-.44q-.88 0-1.79.86-.91.87-1.68 2.33t-1.23 3.23q-.45 1.78-.45 3.6 0 3.96 2.58 3.96 1.22 0 2.21-1.13t1.84-3.52q.09-.31.44-.31.19 0 .22.14t-.07.55q-.31 1.72-1.13 3.04-.81 1.32-1.93 2.09-1.11.77-2.37.77m11.4 0q-1.94 0-3.08-1.62-1.13-1.61-1.13-4.38 0-2.04.66-3.92.66-1.89 1.75-3.37 1.08-1.47 2.42-2.34 1.33-.86 2.68-.86 1.95 0 3.08 1.6t1.13 4.4q0 2.04-.66 3.93-.66 1.88-1.74 3.36-1.09 1.47-2.42 2.34-1.34.86-2.69.86m-.06-.75q1.01 0 1.96-.98.96-.97 1.75-2.57.78-1.6 1.25-3.57.48-1.96.48-3.94 0-3.93-2.05-3.93-.97 0-1.94.96-.98.96-1.75 2.56t-1.24 3.57q-.47 1.96-.47 3.94 0 3.96 2.01 3.96m12.97.75q-1.53 0-2.29-1.16-.75-1.16-.28-2.98l2.42-9.08q.41-1.48-.5-1.48-.66 0-1.31.94-.64.95-1.4 3.08-.12.38-.44.38-.15 0-.25-.14-.09-.14-.03-.36 1.82-5.69 4.56-5.69 1.06 0 1.44.88t-.03 2.42l-2.48 9.36q-.35 1.32-.05 2.03.3.7 1.08.7.92 0 1.94-.88t1.93-2.29 1.47-3.11q.57-1.7.57-3.33 0-1.32-.28-2.09-.29-.77-.58-1.3-.3-.54-.3-1.17 0-1.22 1.07-1.22 1.5 0 1.5 3.33 0 2.39-.69 4.73t-1.82 4.24-2.5 3.05q-1.36 1.14-2.75 1.14m12.26 0q-1.67 0-2.67-1.3-1.01-1.31-1.01-3.69 0-2.08.74-4.12t1.93-3.7q1.19-1.67 2.62-2.68 1.43-1 2.78-1 1.48 0 2.12.71.65.7.65 1.9 0 1.41-.99 2.81t-2.77 2.5q-1.77 1.1-4.16 1.63-.69.16-.72.78-.03.22-.03.46v.46q0 1.79.61 2.7t1.68.91q1.2 0 2.31-1.1 1.12-1.1 1.87-3.11.09-.28.38-.28.19 0 .23.15.05.16-.01.38-1.01 2.76-2.44 4.18-1.43 1.41-3.12 1.41m-1.17-8.13q-.06.22.08.36t.36.08q1.95-.54 3.27-1.62 1.32-1.09 2-2.44.67-1.35.67-2.64 0-1.32-1.04-1.32-.91 0-1.97 1.07-1.07 1.07-1.98 2.8t-1.39 3.71m11.34 7.84h-1.28q-.44 0-.35-.41l2.99-12.53q.15-.69.04-1.09-.11-.39-.58-.39-.56 0-1.24.83-.67.84-1.52 3.16-.13.41-.44.41-.47 0-.25-.57.69-2.16 1.46-3.39t1.55-1.73q.79-.5 1.45-.5 1.03 0 1.47.77t.03 2.53l-.34 1.47q-.03.22.09.26.13.03.22-.16 1.2-2.73 2.17-3.8t2.23-1.07q.85 0 1.27.46.43.45.43 1.24 0 .78-.38 1.25t-.97.47q-.51 0-.73-.25t-.33-.58-.23-.58q-.13-.25-.41-.25-.47 0-1.22 1.19-.76 1.2-1.62 3.22-.87 2.03-1.67 4.54-.8 2.52-1.4 5.15-.09.35-.44.35m7.85 4.71q-.25.16-.49.14-.23-.01-.23-.23t.31-.44q.91-.63 1.65-1.59t.74-1.84q0-.5-.27-.8l-.53-.59q-.27-.3-.27-.81 0-.69.45-1.13.46-.44 1.12-.44.72 0 1.15.46.42.45.42 1.21 0 1-.58 2.17-.58 1.16-1.51 2.2-.93 1.03-1.96 1.69m18.35-4.71h-6.4q-.44 0-.44-.31 0-.35.62-.44l.63-.1q.69-.09.94-.33.26-.23.41-.89l4.28-18.48q.15-.62 0-.86-.16-.24-.79-.36l-.63-.13q-.41-.09-.41-.34 0-.38.57-.38h6q2.1 0 3.42 1.16 1.32 1.17 1.32 3.02 0 1.76-1.25 3.33-1.26 1.57-3.37 2.29-.15.03-.15.14t.15.18q1.64.59 2.49 1.91.84 1.32.84 3.08 0 2.07-1.09 3.79-1.1 1.71-2.97 2.71-1.87 1.01-4.17 1.01m2.2-12.91q1.39 0 2.53-.72 1.15-.73 1.84-1.97t.69-2.72q0-1.66-.83-2.59-.83-.92-2.31-.92-1.63 0-1.92 1.25l-1.35 5.94q-.22.94.1 1.34.31.39 1.25.39m-2.1 12.12q1.66 0 2.98-.89 1.32-.9 2.09-2.47t.77-3.52q0-2.13-.99-3.29-.99-1.17-2.78-1.17-1.95 0-2.29 1.67l-1.73 7.51q-.5 2.16 1.95 2.16m14.07 1.08q-1.95 0-3.08-1.62-1.13-1.61-1.13-4.38 0-2.04.66-3.92.66-1.89 1.75-3.37 1.08-1.47 2.41-2.34 1.34-.86 2.69-.86 1.95 0 3.08 1.6t1.13 4.4q0 2.04-.66 3.93-.66 1.88-1.74 3.36-1.09 1.47-2.42 2.34-1.34.86-2.69.86m-.06-.75q1 0 1.96-.98.96-.97 1.75-2.57.78-1.6 1.25-3.57.47-1.96.47-3.94 0-3.93-2.04-3.93-.97 0-1.95.96-.97.96-1.74 2.56t-1.24 3.57q-.47 1.96-.47 3.94 0 3.96 2.01 3.96m13.07.75q-1.95 0-3.08-1.62-1.13-1.61-1.13-4.38 0-2.04.66-3.92.66-1.89 1.74-3.37 1.09-1.47 2.42-2.34 1.34-.86 2.69-.86 1.94 0 3.07 1.6 1.14 1.6 1.14 4.4 0 2.04-.66 3.93-.66 1.88-1.75 3.36-1.08 1.47-2.42 2.34-1.33.86-2.68.86m-.07-.75q1.01 0 1.97-.98.96-.97 1.74-2.57.79-1.6 1.26-3.57.47-1.96.47-3.94 0-3.93-2.04-3.93-.98 0-1.95.96t-1.74 2.56-1.24 3.57q-.48 1.96-.48 3.94 0 3.96 2.01 3.96m18.23.74q-1.61 0-2.61-2.61l-1.73-4.55q-.31-.75-.79-.75-.47 0-.81.78-.32.69-.68 1.87t-.67 2.56l-.47 2.07q-.1.35-.44.35h-1.23q-.44 0-.34-.41l4.58-19.7q.13-.53 0-.77-.12-.23-.56-.26l-.95-.1q-.47-.06-.4-.41.06-.28.44-.34 1.35-.22 2.16-.5.82-.29 1.26-.66.25-.19.44-.19.41 0 .31.47l-2.92 12.44q-.03.22.1.25.12.03.22-.16l1.03-1.85q2.26-4.02 5.09-4.02 1.07 0 1.7.57.63.56.63 1.53 0 1.54-1.5 3.08-1.49 1.54-3.91 2.52-.75.28-.44 1l1.83 4.65q.31.79.62 1.12.32.33.79.33.72 0 1.1-.9.38-.89.66-3.13.06-.4.38-.4.34 0 .31.62-.16 2.64-.99 4.07t-2.21 1.43m-4.81-9.33q-.13.28-.02.43.11.14.4.07 2.6-.65 4.21-2.16 1.6-1.51 1.6-3.33 0-1.2-.91-1.2-1.07 0-2.49 1.65-1.41 1.65-2.79 4.54m8.44 13.76q-.25.16-.49.14-.23-.01-.23-.23t.31-.44q.91-.63 1.65-1.59t.74-1.84q0-.5-.27-.8l-.53-.59q-.27-.3-.27-.81 0-.69.46-1.13.45-.44 1.11-.44.72 0 1.15.46.42.45.42 1.21 0 1-.58 2.17-.58 1.16-1.51 2.2-.92 1.03-1.96 1.69m22-4.71h-10.05q-.44 0-.44-.31 0-.35.63-.44l.62-.1q.69-.09.96-.33.27-.23.39-.89l4.28-18.48q.15-.66 0-.88-.16-.22-.79-.34l-.63-.13q-.41-.09-.41-.34 0-.38.57-.38h5.69q.47 0 .37.38-.06.28-.41.34l-.87.13q-.7.09-.95.34-.25.26-.41.92l-4.08 17.59q-.25 1.13.31 1.63.57.5 1.64.5 1.19 0 2.45-.91t2.07-2.86l.94-2.19q.16-.41.51-.41.47 0 .31.53l-1.76 5.91q-.19.72-.94.72m10.05-19.01q-.59 0-.99-.42-.39-.42-.39-1.02 0-.85.52-1.35t1.18-.5q.62 0 1.05.39.42.39.42 1.02 0 .88-.53 1.38-.54.5-1.26.5m-2.57 19.32q-1.04 0-1.48-.77t-.03-2.52l2.32-9.96q.16-.69.05-1.09-.11-.39-.58-.39-.57 0-1.24.83-.68.84-1.53 3.16-.12.41-.44.41-.47 0-.25-.57.69-2.16 1.46-3.39t1.56-1.73q.78-.5 1.44-.5 1.1 0 1.54.77t.03 2.53l-2.32 9.96q-.16.69-.05 1.08t.58.39q.57 0 1.24-.83.68-.83 1.53-3.16.12-.41.44-.41.47 0 .25.57-.66 2.14-1.46 3.38t-1.59 1.74q-.78.5-1.47.5m9.95-.02q-1.53 0-2.29-1.16-.75-1.16-.28-2.98l2.42-9.08q.41-1.48-.51-1.48-.66 0-1.3.94-.64.95-1.4 3.08-.12.38-.44.38-.15 0-.25-.14-.09-.14-.03-.36 1.82-5.69 4.56-5.69 1.06 0 1.44.88t-.03 2.42l-2.48 9.36q-.35 1.32-.05 2.03.3.7 1.08.7.92 0 1.94-.88t1.93-2.29 1.47-3.11q.57-1.7.57-3.33 0-1.32-.28-2.09-.29-.77-.58-1.3-.3-.54-.3-1.17 0-1.22 1.07-1.22 1.5 0 1.5 3.33 0 2.39-.69 4.73t-1.82 4.24-2.5 3.05q-1.36 1.14-2.75 1.14m12.26 0q-1.67 0-2.67-1.3-1.01-1.31-1.01-3.69 0-2.08.74-4.12t1.93-3.7q1.19-1.67 2.62-2.68 1.43-1 2.78-1 1.48 0 2.12.71.65.7.65 1.9 0 1.41-.99 2.81t-2.77 2.5q-1.77 1.1-4.16 1.63-.69.16-.72.78-.03.22-.03.46v.46q0 1.79.61 2.7t1.68.91q1.2 0 2.31-1.1 1.12-1.1 1.87-3.11.09-.28.38-.28.18 0 .23.15.05.16-.01.38-1.01 2.76-2.44 4.18-1.43 1.41-3.12 1.41m-1.17-8.13q-.06.22.08.36t.36.08q1.95-.54 3.27-1.62 1.32-1.09 2-2.44.67-1.35.67-2.64 0-1.32-1.04-1.32-.91 0-1.97 1.07-1.07 1.07-1.98 2.8-.92 1.73-1.39 3.71m26.39-.3h-10.08q-.32 0-.25-.31l.09-.44q.06-.31.41-.31h10.08q.29 0 .22.31l-.09.44q-.06.31-.38.31m18.44 8.14h-10.93q-.44 0-.44-.31 0-.35.63-.44l.63-.1q.69-.09.95-.33.27-.23.4-.89l4.27-18.48q.16-.66 0-.88t-.79-.34l-.62-.13q-.41-.09-.41-.34 0-.38.56-.38h10.5q.81 0 .66.72l-.98 5.22q-.09.53-.5.53-.44 0-.38-.41l.1-1.1q.15-1.6-.27-2.51t-1.26-1.29q-.83-.37-1.93-.37-1.26 0-1.82.36-.57.36-.79 1.27l-1.72 7.57q-.1.44.34.44h1.6q1.39 0 2.01-1.48l.69-1.57q.16-.4.51-.4.19 0 .3.14t.04.39l-1.63 7.07q-.16.53-.53.53-.38 0-.38-.41l.03-1.54q.03-1.1-.27-1.44-.3-.35-1.02-.35h-1.57q-.47 0-.56.44l-1.83 7.89q-.25 1.13.22 1.63t2.01.5q.95 0 1.87-.29.93-.3 1.76-1.15t1.53-2.45l.75-1.76q.16-.41.5-.41.47 0 .32.54l-1.61 5.59q-.18.72-.94.72m6.34 0h-1.32q-.41 0-.32-.41l3.18-13.57q.28-1.16-.76-1.16h-.66q-.5 0-.5-.44t.57-.44q.97 0 1.46-.25.48-.25.64-1.01.41-1.79 1.21-3.19.8-1.39 1.93-2.21t2.48-.82q1.1 0 1.78.52.67.52.67 1.43 0 .69-.36 1.11-.36.43-.89.43-.66 0-.87-.38-.2-.38-.25-.88-.04-.5-.2-.88-.16-.37-.72-.37-.73 0-1.28.7-.55.71-.99 2.66l-.62 2.73q-.1.41.34.41h2.51q.6 0 .48.44-.1.44-.57.44h-2.73q-.32 0-.41.31l-3.36 14.48q-.1.35-.44.35m8.57 0h-1.32q-.4 0-.31-.41l3.17-13.57q.29-1.16-.75-1.16h-.66q-.5 0-.5-.44t.56-.44q.98 0 1.46-.25.49-.25.65-1.01.41-1.79 1.21-3.19.8-1.39 1.93-2.21t2.48-.82q1.1 0 1.78.52.67.52.67 1.43 0 .69-.36 1.11-.36.43-.9.43-.66 0-.86-.38t-.25-.88-.21-.88q-.15-.37-.72-.37-.72 0-1.27.7-.55.71-.99 2.66l-.63 2.73q-.09.41.35.41h2.51q.6 0 .47.44-.09.44-.56.44h-2.74q-.31 0-.4.31l-3.37 14.48q-.09.35-.44.35m11.1.29q-1.94 0-3.08-1.62-1.13-1.61-1.13-4.38 0-2.04.66-3.92.66-1.89 1.75-3.37 1.08-1.47 2.42-2.34 1.33-.86 2.68-.86 1.95 0 3.08 1.6t1.13 4.4q0 2.04-.66 3.93-.66 1.88-1.74 3.36-1.09 1.47-2.42 2.34-1.34.86-2.69.86m-.06-.75q1.01 0 1.96-.98.96-.97 1.75-2.57.78-1.6 1.25-3.57.48-1.96.48-3.94 0-3.93-2.05-3.93-.97 0-1.94.96-.98.96-1.75 2.56t-1.24 3.57q-.47 1.96-.47 3.94 0 3.96 2.01 3.96m11.53.46h-1.29q-.44 0-.34-.41l2.98-12.53q.16-.69.05-1.09-.11-.39-.58-.39-.57 0-1.24.83-.68.84-1.53 3.16-.12.41-.44.41-.47 0-.25-.57.69-2.16 1.46-3.39t1.56-1.73q.78-.5 1.44-.5 1.04 0 1.48.77t.03 2.53l-.35 1.47q-.03.22.1.26.12.03.22-.16 1.19-2.73 2.17-3.8.97-1.07 2.23-1.07.84 0 1.27.46.42.45.42 1.24 0 .78-.37 1.25-.38.47-.98.47-.5 0-.72-.25t-.33-.58-.24-.58q-.12-.25-.4-.25-.48 0-1.23 1.19-.75 1.2-1.62 3.22-.86 2.03-1.66 4.54-.8 2.52-1.4 5.15-.09.35-.44.35m11.46.28q-1.07 0-1.67-.85-.6-.84-.19-2.73l2.61-11.37q.09-.47-.38-.47h-1.19q-.44 0-.44-.41 0-.22.16-.35.15-.12.37-.12h1.13q.73 0 .85-.66l.76-3.36q.09-.35.44-.35h1.28q.44 0 .35.41l-.79 3.49q-.09.47.38.47h1.79q.54 0 .54.41 0 .47-.66.47h-1.7q-.69 0-.85.66l-2.64 11.5q-.15.69.05 1.08t.71.39q.72 0 1.33-.82.61-.81 1.31-3.11.12-.4.4-.4.22 0 .29.18.06.19-.1.7-.59 2.13-1.3 3.26t-1.43 1.56q-.72.42-1.41.42m7.67.04q-1.04 0-1.48-.77t-.03-2.52l3.99-17.13q.16-.56.02-.78t-.58-.25l-.95-.1q-.47-.03-.4-.41.06-.28.44-.34 1.13-.19 2.01-.46.88-.26 1.41-.7.25-.19.47-.19.38 0 .28.47l-4.65 19.92q-.15.69-.04 1.08t.58.39q.56 0 1.24-.83t1.52-3.16q.13-.41.44-.41.47 0 .25.57-.66 2.14-1.46 3.38t-1.58 1.74q-.79.5-1.48.5m9.27-.03q-1.67 0-2.67-1.3-1.01-1.31-1.01-3.69 0-2.08.74-4.12t1.93-3.7q1.2-1.67 2.63-2.68 1.43-1 2.78-1 1.47 0 2.12.71.64.7.64 1.9 0 1.41-.99 2.81t-2.76 2.5q-1.78 1.1-4.17 1.63-.69.16-.72.78-.03.22-.03.46v.46q0 1.79.61 2.7.62.91 1.68.91 1.2 0 2.31-1.1 1.12-1.1 1.87-3.11.1-.28.38-.28.19 0 .23.15.05.16-.01.38-1.01 2.76-2.44 4.18-1.43 1.41-3.12 1.41m-1.16-8.13q-.07.22.07.36.15.14.37.08 1.94-.54 3.26-1.62 1.32-1.09 2-2.44.67-1.35.67-2.64 0-1.32-1.03-1.32-.91 0-1.98 1.07t-1.98 2.8-1.38 3.71m11.68 8.13q-1.03 0-2.18-.31-1.15-.32-1.74-.79-.22-.19-.19-.56l.69-4.12q.06-.41.37-.41.35 0 .35.44l.06 1.51q.07 1.79.87 2.62.8.84 1.96.84 1.01 0 1.73-.65.72-.64.72-1.9 0-.72-.22-1.33-.22-.62-.69-1.32-.47-.71-1.29-1.71-1.07-1.39-1.58-2.38-.52-.99-.52-2.05 0-1.98 1.24-3.18 1.24-1.19 3.15-1.19.85 0 1.65.25.81.25 1.34.75.28.22.19.57l-.88 4.21q-.1.41-.38.41t-.34-.44l-.1-1.51q-.12-1.88-.49-2.7-.36-.82-1.49-.82-1 0-1.63.69t-.63 1.67q0 1.03.57 1.9.56.86 1.54 2.18 1.28 1.7 1.74 2.7.45 1.01.45 2.05 0 1.32-.58 2.35-.58 1.04-1.55 1.64-.98.59-2.14.59m9.49 0q-1.04 0-2.18-.31-1.15-.32-1.75-.79-.22-.19-.19-.56l.69-4.12q.07-.41.38-.41.35 0 .35.44l.06 1.51q.06 1.79.86 2.62.81.84 1.97.84 1 0 1.73-.65.72-.64.72-1.9 0-.72-.22-1.33-.22-.62-.69-1.32-.47-.71-1.29-1.71-1.07-1.39-1.59-2.38t-.52-2.05q0-1.98 1.24-3.18 1.25-1.19 3.16-1.19.85 0 1.65.25t1.34.75q.28.22.18.57l-.87 4.21q-.1.41-.38.41t-.35-.44l-.09-1.51q-.13-1.88-.49-2.7t-1.49-.82q-1.01 0-1.63.69-.63.69-.63 1.67 0 1.03.56 1.9.57.86 1.54 2.18 1.29 1.7 1.75 2.7.45 1.01.45 2.05 0 1.32-.58 2.35-.58 1.04-1.55 1.64-.98.59-2.14.59m8.17.03q-1.04 0-1.48-.77t-.03-2.52l3.99-17.13q.16-.56.01-.78-.14-.22-.58-.25l-.94-.1q-.47-.03-.41-.41.07-.28.44-.34 1.13-.19 2.01-.46.88-.26 1.42-.7.25-.19.47-.19.37 0 .28.47l-4.65 19.92q-.16.69-.05 1.08t.58.39q.57 0 1.25-.83.67-.83 1.52-3.16.13-.41.44-.41.47 0 .25.57-.66 2.14-1.46 3.38t-1.59 1.74q-.78.5-1.47.5"/><path d="M1196.132 464.804q-1.19 0-1.85-.61t-.66-1.49q0-.66.35-.99.34-.33.75-.33.6 0 .85.31.25.32.37.74.13.43.4.74.26.31.86.31 1.16 0 2.29-.92 1.14-.93 1.86-2.55.72-1.61.63-3.63l-.47-11.27q-.04-.82-.29-1.15t-.63-.33q-.69 0-1.32.83-.62.84-1.03 3.16-.1.41-.41.41-.44 0-.35-.57.38-2.16 1.06-3.39.67-1.23 1.44-1.73t1.43-.5q.97 0 1.54.68.57.67.63 2.3l.44 12.07q0 .22.14.26.14.05.27-.14 1.1-1.54 1.99-3.19.9-1.65 1.43-3.25.54-1.6.54-2.95 0-1.32-.29-2.09-.28-.77-.58-1.3-.3-.54-.3-1.17 0-1.22 1.07-1.22 1.51 0 1.51 3.33 0 1.82-.63 3.97-.63 2.16-1.71 4.37-1.09 2.21-2.48 4.23-1.4 2.01-2.92 3.61-1.53 1.6-3.05 2.53-1.53.92-2.88.92m15.93-6.47q-.66 0-1.07-.42-.41-.43-.41-1.05 0-.82.57-1.32.56-.51 1.19-.51t1.06.43q.42.42.42 1.05 0 .82-.57 1.32-.56.5-1.19.5"/><path fill="#ff385c" d="M1027.132.124a137.42 137.42 0 1 0 0 274.84 137.42 137.42 0 1 0 0-274.84"/><path fill="#3d2f28" d="M1027.162 56.879c-34.243 0-62.26 27.734-62.26 61.977s62.26 99.333 62.26 99.333 62.26-65.09 62.26-99.333-28.017-61.977-62.26-61.977m0 91.126c-19.527 0-35.375-15.848-35.375-35.092s15.848-35.092 35.375-35.092 35.375 15.565 35.375 35.092-15.848 35.092-35.375 35.092"/></g><path fill="transparent" stroke="transparent" d="M721 0h558v466H721z"/></g></svg>